HIERARCHY
ROOT Hips
{
	OFFSET 0.000000 100.481300 0.000000
	CHANNELS 6 Xposition Yposition Zposition Xrotation Yrotation Zrotation
	JOINT Spine
	{
		OFFSET -0.279200 12.230698 -2.892100
		CHANNELS 3 Xrotation Yrotation Zrotation
		JOINT Spine1
		{
			OFFSET -0.325700 14.269203 -3.374200
			CHANNELS 3 Xrotation Yrotation Zrotation
			JOINT Spine2
			{
				OFFSET -0.372300 16.307602 -0.352600
				CHANNELS 3 Xrotation Yrotation Zrotation
				JOINT Neck
				{
					OFFSET -0.418800 17.814194 8.416900
					CHANNELS 3 Xrotation Yrotation Zrotation
					JOINT Head
					{
						OFFSET 0.000000 7.031097 3.806800
						CHANNELS 3 Xrotation Yrotation Zrotation
						JOINT HeadTop_End
						{
							OFFSET 0.000000 24.646606 12.978600
							CHANNELS 3 Xrotation Yrotation Zrotation
							End Site
							{
								OFFSET 0.000000 27.854965 0.000000
							}
						}
					}
				}
				JOINT LeftShoulder
				{
					OFFSET 16.952999 14.495407 -7.737500
					CHANNELS 3 Xrotation Yrotation Zrotation
					JOINT LeftArm
					{
						OFFSET 9.308998 -2.777710 0.208600
						CHANNELS 3 Xrotation Yrotation Zrotation
						JOINT LeftForeArm
						{
							OFFSET 29.972298 0.000000 0.000000
							CHANNELS 3 Xrotation Yrotation Zrotation
							JOINT LeftHand
							{
								OFFSET 26.026505 0.000000 0.000000
								CHANNELS 3 Xrotation Yrotation Zrotation
								JOINT LeftHandThumb1
								{
									OFFSET 12.240501 -7.147949 9.207150
									CHANNELS 3 Xrotation Yrotation Zrotation
									JOINT LeftHandThumb2
									{
										OFFSET 4.138618 -2.389435 2.389433
										CHANNELS 3 Xrotation Yrotation Zrotation
										JOINT LeftHandThumb3
										{
											OFFSET 2.726913 -1.574387 1.574386
											CHANNELS 3 Xrotation Yrotation Zrotation
											JOINT LeftHandThumb4
											{
												OFFSET 3.941010 -2.275345 2.275342
												CHANNELS 3 Xrotation Yrotation Zrotation
												End Site
												{
													OFFSET -0.005798 5.087799 0.009903
												}
											}
										}
									}
								}
								JOINT LeftHandIndex1
								{
									OFFSET 24.424698 -1.985611 5.953459
									CHANNELS 3 Xrotation Yrotation Zrotation
									JOINT LeftHandIndex2
									{
										OFFSET 6.426697 0.000000 0.000000
										CHANNELS 3 Xrotation Yrotation Zrotation
										JOINT LeftHandIndex3
										{
											OFFSET 5.337898 0.000000 0.000000
											CHANNELS 3 Xrotation Yrotation Zrotation
											JOINT LeftHandIndex4
											{
												OFFSET 4.409401 0.000000 0.000000
												CHANNELS 3 Xrotation Yrotation Zrotation
												End Site
												{
													OFFSET 0.000000 4.409363 0.014373
												}
											}
										}
									}
								}
								JOINT LeftHandMiddle1
								{
									OFFSET 23.810104 0.000000 0.000000
									CHANNELS 3 Xrotation Yrotation Zrotation
									JOINT LeftHandMiddle2
									{
										OFFSET 7.176498 0.000000 0.000000
										CHANNELS 3 Xrotation Yrotation Zrotation
										JOINT LeftHandMiddle3
										{
											OFFSET 6.774902 0.000000 0.000000
											CHANNELS 3 Xrotation Yrotation Zrotation
											JOINT LeftHandMiddle4
											{
												OFFSET 5.403328 0.000000 0.000000
												CHANNELS 3 Xrotation Yrotation Zrotation
												End Site
												{
													OFFSET -0.027702 5.403244 0.017414
												}
											}
										}
									}
								}
								JOINT LeftHandRing1
								{
									OFFSET 22.908401 -0.839279 -6.020567
									CHANNELS 3 Xrotation Yrotation Zrotation
									JOINT LeftHandRing2
									{
										OFFSET 6.337502 0.000000 0.000000
										CHANNELS 3 Xrotation Yrotation Zrotation
										JOINT LeftHandRing3
										{
											OFFSET 5.779297 0.000000 0.000000
											CHANNELS 3 Xrotation Yrotation Zrotation
											JOINT LeftHandRing4
											{
												OFFSET 4.965698 0.000000 0.000000
												CHANNELS 3 Xrotation Yrotation Zrotation
												End Site
												{
													OFFSET 0.000000 4.965668 0.016186
												}
											}
										}
									}
								}
								JOINT LeftHandPinky1
								{
									OFFSET 20.037003 -1.530319 -10.950146
									CHANNELS 3 Xrotation Yrotation Zrotation
									JOINT LeftHandPinky2
									{
										OFFSET 5.254700 0.000000 0.000000
										CHANNELS 3 Xrotation Yrotation Zrotation
										JOINT LeftHandPinky3
										{
											OFFSET 4.810204 0.000000 0.000000
											CHANNELS 3 Xrotation Yrotation Zrotation
											JOINT LeftHandPinky4
											{
												OFFSET 3.647202 0.000000 0.000000
												CHANNELS 3 Xrotation Yrotation Zrotation
												End Site
												{
													OFFSET 0.000000 3.647186 0.011889
												}
											}
										}
									}
								}
							}
						}
					}
				}
				JOINT RightShoulder
				{
					OFFSET -15.141001 14.495407 -7.737500
					CHANNELS 3 Xrotation Yrotation Zrotation
					JOINT RightArm
					{
						OFFSET -9.308998 -2.777710 0.208500
						CHANNELS 3 Xrotation Yrotation Zrotation
						JOINT RightForeArm
						{
							OFFSET -29.972300 0.000000 0.000000
							CHANNELS 3 Xrotation Yrotation Zrotation
							JOINT RightHand
							{
								OFFSET -26.026505 0.000000 0.000000
								CHANNELS 3 Xrotation Yrotation Zrotation
								JOINT RightHandThumb1
								{
									OFFSET -12.240601 -7.148026 9.207092
									CHANNELS 3 Xrotation Yrotation Zrotation
									JOINT RightHandThumb2
									{
										OFFSET -4.138618 -2.389435 2.389433
										CHANNELS 3 Xrotation Yrotation Zrotation
										JOINT RightHandThumb3
										{
											OFFSET -2.726974 -1.574417 1.574421
											CHANNELS 3 Xrotation Yrotation Zrotation
											JOINT RightHandThumb4
											{
												OFFSET -3.941010 -2.275345 2.275343
												CHANNELS 3 Xrotation Yrotation Zrotation
												End Site
												{
													OFFSET 0.005814 5.087799 0.009927
												}
											}
										}
									}
								}
								JOINT RightHandIndex1
								{
									OFFSET -24.424698 -1.985657 5.953444
									CHANNELS 3 Xrotation Yrotation Zrotation
									JOINT RightHandIndex2
									{
										OFFSET -6.426697 0.000000 0.000000
										CHANNELS 3 Xrotation Yrotation Zrotation
										JOINT RightHandIndex3
										{
											OFFSET -5.337898 0.000000 0.000000
											CHANNELS 3 Xrotation Yrotation Zrotation
											JOINT RightHandIndex4
											{
												OFFSET -4.409401 0.000000 0.000000
												CHANNELS 3 Xrotation Yrotation Zrotation
												End Site
												{
													OFFSET 0.000000 4.409363 0.014408
												}
											}
										}
									}
								}
								JOINT RightHandMiddle1
								{
									OFFSET -23.810097 0.000000 0.000000
									CHANNELS 3 Xrotation Yrotation Zrotation
									JOINT RightHandMiddle2
									{
										OFFSET -7.176498 0.000000 0.000000
										CHANNELS 3 Xrotation Yrotation Zrotation
										JOINT RightHandMiddle3
										{
											OFFSET -6.774902 0.000000 0.000000
											CHANNELS 3 Xrotation Yrotation Zrotation
											JOINT RightHandMiddle4
											{
												OFFSET -5.403328 0.000000 0.000000
												CHANNELS 3 Xrotation Yrotation Zrotation
												End Site
												{
													OFFSET 0.027702 5.403244 0.017457
												}
											}
										}
									}
								}
								JOINT RightHandRing1
								{
									OFFSET -22.908302 -0.839325 -6.020576
									CHANNELS 3 Xrotation Yrotation Zrotation
									JOINT RightHandRing2
									{
										OFFSET -6.337502 0.000000 0.000000
										CHANNELS 3 Xrotation Yrotation Zrotation
										JOINT RightHandRing3
										{
											OFFSET -5.779297 0.000000 0.000000
											CHANNELS 3 Xrotation Yrotation Zrotation
											JOINT RightHandRing4
											{
												OFFSET -4.965698 0.000000 0.000000
												CHANNELS 3 Xrotation Yrotation Zrotation
												End Site
												{
													OFFSET 0.000000 4.965668 0.016226
												}
											}
										}
									}
								}
								JOINT RightHandPinky1
								{
									OFFSET -20.037003 -1.530334 -10.950259
									CHANNELS 3 Xrotation Yrotation Zrotation
									JOINT RightHandPinky2
									{
										OFFSET -5.254700 0.000000 0.000000
										CHANNELS 3 Xrotation Yrotation Zrotation
										JOINT RightHandPinky3
										{
											OFFSET -4.810204 0.000000 0.000000
											CHANNELS 3 Xrotation Yrotation Zrotation
											JOINT RightHandPinky4
											{
												OFFSET -3.647202 0.000000 0.000000
												CHANNELS 3 Xrotation Yrotation Zrotation
												End Site
												{
													OFFSET 0.000000 3.647186 0.011917
												}
											}
										}
									}
								}
							}
						}
					}
				}
			}
		}
	}
	JOINT LeftUpLeg
	{
		OFFSET 15.427100 -6.655098 0.678600
		CHANNELS 3 Xrotation Yrotation Zrotation
		JOINT LeftLeg
		{
			OFFSET 4.081073 -39.591068 13.024000
			CHANNELS 3 Xrotation Yrotation Zrotation
			JOINT LeftFoot
			{
				OFFSET -4.081074 -37.707932 -15.979700
				CHANNELS 3 Xrotation Yrotation Zrotation
				JOINT LeftToeBase
				{
					OFFSET 5.346399 -15.068900 20.645000
					CHANNELS 3 Xrotation Yrotation Zrotation
					JOINT LeftToe_End
					{
						OFFSET 2.754700 0.931300 11.300900
						CHANNELS 3 Xrotation Yrotation Zrotation
						End Site
						{
							OFFSET 0.000000 11.669021 0.000000
						}
					}
				}
			}
		}
	}
	JOINT RightUpLeg
	{
		OFFSET -15.569500 -6.655098 0.678600
		CHANNELS 3 Xrotation Yrotation Zrotation
		JOINT RightLeg
		{
			OFFSET -4.081825 -39.591045 13.023800
			CHANNELS 3 Xrotation Yrotation Zrotation
			JOINT RightFoot
			{
				OFFSET 4.081824 -37.707954 -15.979600
				CHANNELS 3 Xrotation Yrotation Zrotation
				JOINT RightToeBase
				{
					OFFSET -5.346400 -15.068900 20.645000
					CHANNELS 3 Xrotation Yrotation Zrotation
					JOINT RightToe_End
					{
						OFFSET -2.754700 0.931300 11.300900
						CHANNELS 3 Xrotation Yrotation Zrotation
						End Site
						{
							OFFSET 0.000000 11.669021 0.000000
						}
					}
				}
			}
		}
	}
}
MOTION
Frames: 5
Frame Time: 0.033333
2.298332 7.428856 -5.083893 -98.073764 -9.986705 -3.386726 10.146407 6.975626 -3.253218 -0.656643 1.535415 -2.010384 -0.610188 1.498291 -2.055746 -0.817941 -5.109267 5.303416 14.823336 -15.323435 -6.293097 -0.000001 -0.000000 -0.000000 0.532037 -2.968095 3.563495 44.864292 -36.894728 -39.230920 0.000402 -94.139452 0.000421 -10.329617 -9.933256 -16.301653 -1.540035 3.690190 6.142358 3.939052 7.948701 0.746804 -0.579468 1.574999 2.538715 -0.000000 -0.000001 0.000001 0.013796 -0.436543 3.619830 0.049413 0.825114 -6.853978 0.049410 0.825109 -6.853974 0.000000 -0.000000 -0.000000 0.013918 -0.438463 3.635816 0.049640 0.827025 -6.869965 0.049411 0.825110 -6.853975 -0.000001 0.000002 -0.000000 0.013796 -0.436543 3.619830 0.049413 0.825113 -6.853974 0.049411 0.825109 -6.853976 -0.000000 0.000001 0.000000 -0.260514 3.608478 4.137860 0.038766 -3.229616 -7.361072 0.049410 0.825106 -6.853974 0.000000 -0.000000 0.000000 -1.439078 -10.660473 -6.684421 1.383144 2.153358 48.229417 0.000011 22.482700 0.000002 -8.159113 -20.569139 -9.723133 -1.849241 -3.581795 -6.586137 4.637199 -8.634122 -0.225406 -1.273767 0.137315 -2.094870 -0.000001 -0.000001 -0.000001 0.140237 -1.392174 11.503030 0.140202 -1.392169 11.503022 0.140250 -1.392169 11.503021 -0.000000 -0.000000 -0.000000 0.140237 -1.392173 11.503029 0.140201 -1.392169 11.503022 0.140239 -1.392163 11.503029 0.000001 -0.000000 -0.000001 0.140236 -1.392173 11.503026 0.140204 -1.392170 11.503027 0.140249 -1.392170 11.503022 0.000002 -0.000000 0.000001 0.140237 -1.392174 11.503029 0.140202 -1.392171 11.503020 0.140248 -1.392168 11.503022 -0.000001 -0.000000 0.000002 -9.722610 7.345640 10.856340 19.125325 -7.935834 1.345093 30.253199 -17.222503 -36.275941 -3.052233 -0.000005 -0.000018 -0.000001 0.000001 0.000001 -62.300724 -36.300741 -57.073873 86.668769 -0.245770 6.804529 2.000060 2.003472 5.195223 -0.775006 -0.000001 0.000020 0.000001 -0.000001 -0.000001 
2.302655 7.438126 -5.084602 -98.095546 -10.015233 -3.360321 10.188741 6.947569 -3.325181 -0.675268 1.531583 -1.995130 -0.629454 1.494608 -2.040849 -0.809950 -5.096855 5.297781 14.859336 -15.268321 -6.331926 -0.000000 -0.000002 0.000001 0.533559 -2.983120 3.622094 44.778812 -36.861015 -39.452716 -0.000223 -94.123552 -0.000225 -10.306545 -9.957882 -16.305232 -1.540034 3.690193 6.142359 3.939051 7.948700 0.746805 -0.579464 1.575002 2.538719 -0.000000 -0.000002 0.000001 0.013795 -0.436539 3.619834 0.049412 0.825114 -6.853977 0.049410 0.825113 -6.853974 0.000000 -0.000000 0.000000 0.013918 -0.438466 3.635818 0.049640 0.827028 -6.869963 0.049414 0.825113 -6.853975 -0.000000 0.000000 0.000000 0.013795 -0.436539 3.619835 0.049412 0.825115 -6.853975 0.049413 0.825110 -6.853975 -0.000001 -0.000002 -0.000001 -0.260515 3.608478 4.137863 0.038764 -3.229620 -7.361072 0.049415 0.825114 -6.853971 0.000001 -0.000001 -0.000000 -1.419028 -10.517605 -6.688626 1.434555 2.124055 48.208175 -0.000009 22.464226 0.000005 -8.231916 -20.547596 -9.739768 -1.849234 -3.581788 -6.586144 4.637199 -8.634127 -0.225405 -1.273764 0.137315 -2.094873 -0.000001 0.000000 -0.000002 0.140238 -1.392169 11.503022 0.140213 -1.392170 11.503029 0.140233 -1.392168 11.503021 0.000001 -0.000000 0.000001 0.140238 -1.392168 11.503021 0.140213 -1.392170 11.503026 0.140238 -1.392167 11.503026 -0.000001 0.000000 -0.000002 0.140235 -1.392167 11.503018 0.140215 -1.392174 11.503026 0.140233 -1.392169 11.503020 0.000000 -0.000000 0.000002 0.140238 -1.392169 11.503021 0.140212 -1.392172 11.503026 0.140231 -1.392167 11.503017 0.000001 -0.000001 0.000005 -9.653263 7.322697 10.800488 19.091325 -7.942210 1.361445 30.274206 -17.172352 -36.302893 -3.112729 0.000010 -0.000005 0.000003 -0.000001 -0.000002 -62.391449 -36.256727 -57.113028 86.735131 -0.367322 6.739706 2.034651 2.045510 4.999624 -0.844533 0.000000 0.000001 0.000001 0.000000 0.000000 
2.303216 7.447762 -5.090912 -98.078873 -10.011360 -3.354269 10.195029 6.961728 -3.335383 -0.676773 1.535657 -2.000112 -0.630767 1.498556 -2.045993 -0.837690 -5.110377 5.314158 14.862888 -15.294518 -6.394710 0.000000 0.000002 0.000000 0.538251 -3.026069 3.702658 44.707102 -36.890046 -39.597356 0.000006 -94.080269 -0.000011 -10.304060 -9.997382 -16.291085 -1.540035 3.690191 6.142346 3.939045 7.948709 0.746823 -0.579470 1.574991 2.538709 -0.000000 0.000000 0.000002 0.013795 -0.436545 3.619832 0.049410 0.825107 -6.853972 0.049411 0.825108 -6.853973 0.000000 -0.000002 0.000000 0.013917 -0.438465 3.635819 0.049640 0.827030 -6.869963 0.049411 0.825109 -6.853972 0.000000 -0.000001 0.000001 0.013795 -0.436545 3.619832 0.049409 0.825108 -6.853967 0.049412 0.825109 -6.853972 -0.000000 -0.000000 -0.000000 -0.260516 3.608473 4.137851 0.038766 -3.229613 -7.361074 0.049412 0.825107 -6.853970 -0.000000 -0.000001 -0.000001 -1.425750 -10.553202 -6.701368 1.428602 2.109109 48.247251 -0.000003 22.448496 0.000006 -8.244653 -20.498677 -9.803274 -1.849232 -3.581795 -6.586137 4.637187 -8.634114 -0.225405 -1.273755 0.137300 -2.094869 -0.000001 0.000001 -0.000003 0.140219 -1.392168 11.503022 0.140232 -1.392185 11.503037 0.140226 -1.392157 11.503009 0.000003 0.000000 -0.000001 0.140219 -1.392168 11.503020 0.140234 -1.392186 11.503036 0.140238 -1.392157 11.503007 0.000001 0.000000 -0.000001 0.140219 -1.392169 11.503023 0.140233 -1.392186 11.503035 0.140227 -1.392158 11.503008 0.000000 0.000000 -0.000002 0.140219 -1.392168 11.503020 0.140234 -1.392188 11.503037 0.140227 -1.392154 11.503010 -0.000000 -0.000000 0.000001 -9.649517 7.311883 10.789068 19.069804 -7.930452 1.376714 30.279017 -17.186629 -36.317069 -3.121418 0.000001 0.000013 0.000001 -0.000001 -0.000000 -62.432717 -36.249255 -57.142916 86.768968 -0.438009 6.739436 2.042317 2.072255 4.860687 -0.918773 0.000008 0.000010 -0.000001 -0.000000 0.000000 
2.302819 7.455452 -5.097237 -98.052113 -10.011132 -3.345338 10.171763 7.002289 -3.346935 -0.668897 1.544955 -2.012240 -0.622445 1.507654 -2.058163 -0.867027 -5.124513 5.321859 14.896533 -15.350640 -6.286927 -0.000001 -0.000000 -0.000000 0.547030 -3.102789 3.779296 44.654223 -36.915065 -39.692452 -0.001101 -94.047579 -0.001040 -10.320680 -10.019940 -16.268809 -1.540035 3.690187 6.142349 3.939047 7.948709 0.746815 -0.579467 1.575009 2.538718 -0.000000 0.000002 -0.000001 0.013795 -0.436543 3.619832 0.049411 0.825113 -6.853978 0.049412 0.825113 -6.853972 0.000000 -0.000001 0.000001 0.013918 -0.438472 3.635819 0.049642 0.827033 -6.869963 0.049413 0.825110 -6.853977 -0.000001 -0.000001 0.000001 0.013795 -0.436543 3.619832 0.049412 0.825113 -6.853975 0.049412 0.825114 -6.853975 -0.000001 -0.000000 0.000000 -0.260514 3.608473 4.137856 0.038767 -3.229618 -7.361077 0.049413 0.825112 -6.853975 -0.000001 -0.000003 -0.000000 -1.440325 -10.673654 -6.679319 1.359990 2.111932 48.244177 0.000021 22.416058 0.000004 -8.087217 -20.566647 -9.516444 -1.849231 -3.581796 -6.586139 4.637199 -8.634120 -0.225410 -1.273761 0.137315 -2.094866 0.000000 -0.000001 0.000001 0.140260 -1.392173 11.503022 0.140204 -1.392176 11.503031 0.140238 -1.392174 11.503026 0.000002 0.000000 -0.000001 0.140260 -1.392172 11.503017 0.140203 -1.392177 11.503034 0.140248 -1.392174 11.503022 0.000001 0.000000 0.000000 0.140259 -1.392174 11.503020 0.140204 -1.392178 11.503032 0.140239 -1.392176 11.503024 -0.000001 0.000000 -0.000000 0.140260 -1.392173 11.503017 0.140203 -1.392179 11.503033 0.140239 -1.392173 11.503024 0.000001 0.000000 -0.000001 -9.651150 7.305321 10.775838 19.030114 -7.920491 1.381523 30.312130 -17.221480 -36.336552 -3.088536 0.000012 -0.000001 -0.000000 -0.000003 -0.000000 -62.456267 -36.232166 -57.163588 86.801712 -0.510929 6.753998 2.047341 2.094210 4.747222 -1.008302 -0.000007 0.000003 -0.000003 0.000000 -0.000000 
2.306545 7.458344 -5.096680 -98.069195 -10.044861 -3.321713 10.190917 6.998295 -3.396115 -0.683392 1.545346 -2.006974 -0.637200 1.508102 -2.053213 -0.825378 -5.129198 5.357162 14.884623 -15.321991 -6.343770 0.000001 -0.000001 0.000001 0.553597 -3.158697 3.788749 44.625441 -36.839687 -39.805226 -0.000887 -94.057237 -0.000850 -10.325659 -10.021177 -16.299859 -1.540034 3.690195 6.142351 3.939047 7.948705 0.746816 -0.579464 1.575002 2.538717 -0.000000 -0.000004 -0.000000 0.013795 -0.436536 3.619834 0.049414 0.825113 -6.853977 0.049413 0.825114 -6.853976 -0.000001 -0.000000 -0.000000 0.013916 -0.438464 3.635814 0.049644 0.827026 -6.869960 0.049412 0.825113 -6.853977 0.000001 0.000000 -0.000000 0.013795 -0.436536 3.619835 0.049414 0.825115 -6.853971 0.049412 0.825112 -6.853977 -0.000001 -0.000001 -0.000001 -0.260514 3.608479 4.137859 0.038765 -3.229613 -7.361064 0.049411 0.825111 -6.853976 0.000000 0.000001 0.000000 -1.433406 -10.659933 -6.639780 1.382655 2.142515 48.188747 0.000016 22.457836 -0.000001 -8.105693 -20.601061 -9.518810 -1.849271 -3.581786 -6.586138 4.637198 -8.634128 -0.225403 -1.273749 0.137314 -2.094876 -0.000001 -0.000002 0.000000 0.140223 -1.392163 11.503023 0.140223 -1.392173 11.503032 0.140223 -1.392173 11.503022 0.000001 0.000001 -0.000001 0.140223 -1.392162 11.503020 0.140222 -1.392174 11.503028 0.140241 -1.392165 11.503020 -0.000000 -0.000000 0.000000 0.140211 -1.392165 11.503027 0.140233 -1.392176 11.503022 0.140225 -1.392173 11.503023 -0.000001 0.000000 -0.000002 0.140223 -1.392163 11.503020 0.140222 -1.392176 11.503027 0.140225 -1.392171 11.503026 -0.000002 -0.000000 0.000002 -9.585543 7.294969 10.723541 18.974484 -7.924927 1.385069 30.363142 -17.211021 -36.375740 -3.078981 0.000005 0.000008 0.000004 -0.000001 0.000000 -62.489517 -36.188531 -57.185414 86.861216 -0.597030 6.717589 2.029309 2.111095 4.661196 -1.078505 0.000015 0.000017 -0.000001 0.000001 0.000000 
